<mxfile host="app.diagrams.net" modified="2023-02-02T08:17:37.375Z" agent="5.0 (X11; Linux x86_64) AppleWebKit/537.36 (KHTML, like Gecko) Chrome/109.0.0.0 Safari/537.36" etag="gcpfTIpG4p-yYY8uGXQQ" version="20.8.15" type="github">
  <diagram id="C5RBs43oDa-KdzZeNtuy" name="Page-1">
    <mxGraphModel dx="814" dy="2790" grid="1" gridSize="10" guides="1" tooltips="1" connect="1" arrows="1" fold="1" page="1" pageScale="1" pageWidth="827" pageHeight="1169" math="0" shadow="0">
      <root>
        <mxCell id="WIyWlLk6GJQsqaUBKTNV-0" />
        <mxCell id="WIyWlLk6GJQsqaUBKTNV-1" parent="WIyWlLk6GJQsqaUBKTNV-0" />
        <mxCell id="vq3K7hZSyllb6Ue5ED_a-2" value="" style="edgeStyle=none;curved=1;rounded=0;orthogonalLoop=1;jettySize=auto;html=1;fontSize=12;startSize=8;endSize=8;" edge="1" parent="WIyWlLk6GJQsqaUBKTNV-1" source="vq3K7hZSyllb6Ue5ED_a-0" target="vq3K7hZSyllb6Ue5ED_a-1">
          <mxGeometry relative="1" as="geometry" />
        </mxCell>
        <mxCell id="vq3K7hZSyllb6Ue5ED_a-0" value="start" style="ellipse;whiteSpace=wrap;html=1;fontSize=16;" vertex="1" parent="WIyWlLk6GJQsqaUBKTNV-1">
          <mxGeometry x="330" y="-2040" width="100" height="50" as="geometry" />
        </mxCell>
        <mxCell id="vq3K7hZSyllb6Ue5ED_a-4" value="" style="edgeStyle=none;curved=1;rounded=0;orthogonalLoop=1;jettySize=auto;html=1;fontSize=12;startSize=8;endSize=8;" edge="1" parent="WIyWlLk6GJQsqaUBKTNV-1" source="vq3K7hZSyllb6Ue5ED_a-1" target="vq3K7hZSyllb6Ue5ED_a-3">
          <mxGeometry relative="1" as="geometry" />
        </mxCell>
        <mxCell id="vq3K7hZSyllb6Ue5ED_a-1" value="int double(int num1, num2" style="whiteSpace=wrap;html=1;fontSize=16;" vertex="1" parent="WIyWlLk6GJQsqaUBKTNV-1">
          <mxGeometry x="320" y="-1960" width="120" height="60" as="geometry" />
        </mxCell>
        <mxCell id="vq3K7hZSyllb6Ue5ED_a-6" value="" style="edgeStyle=none;curved=1;rounded=0;orthogonalLoop=1;jettySize=auto;html=1;fontSize=12;startSize=8;endSize=8;" edge="1" parent="WIyWlLk6GJQsqaUBKTNV-1" source="vq3K7hZSyllb6Ue5ED_a-3" target="vq3K7hZSyllb6Ue5ED_a-5">
          <mxGeometry relative="1" as="geometry" />
        </mxCell>
        <mxCell id="vq3K7hZSyllb6Ue5ED_a-3" value="double sum = num1 + num2" style="whiteSpace=wrap;html=1;fontSize=16;" vertex="1" parent="WIyWlLk6GJQsqaUBKTNV-1">
          <mxGeometry x="320" y="-1870" width="120" height="60" as="geometry" />
        </mxCell>
        <mxCell id="vq3K7hZSyllb6Ue5ED_a-8" value="" style="edgeStyle=none;curved=1;rounded=0;orthogonalLoop=1;jettySize=auto;html=1;fontSize=12;startSize=8;endSize=8;" edge="1" parent="WIyWlLk6GJQsqaUBKTNV-1" source="vq3K7hZSyllb6Ue5ED_a-5" target="vq3K7hZSyllb6Ue5ED_a-7">
          <mxGeometry relative="1" as="geometry" />
        </mxCell>
        <mxCell id="vq3K7hZSyllb6Ue5ED_a-5" value="return sum;" style="whiteSpace=wrap;html=1;fontSize=16;" vertex="1" parent="WIyWlLk6GJQsqaUBKTNV-1">
          <mxGeometry x="320" y="-1790" width="120" height="60" as="geometry" />
        </mxCell>
        <mxCell id="vq3K7hZSyllb6Ue5ED_a-9" style="edgeStyle=none;curved=1;rounded=0;orthogonalLoop=1;jettySize=auto;html=1;fontSize=12;startSize=8;endSize=8;" edge="1" parent="WIyWlLk6GJQsqaUBKTNV-1" source="vq3K7hZSyllb6Ue5ED_a-7">
          <mxGeometry relative="1" as="geometry">
            <mxPoint x="380" y="-1600" as="targetPoint" />
          </mxGeometry>
        </mxCell>
        <mxCell id="vq3K7hZSyllb6Ue5ED_a-7" value="double a, b, c" style="whiteSpace=wrap;html=1;fontSize=16;" vertex="1" parent="WIyWlLk6GJQsqaUBKTNV-1">
          <mxGeometry x="320" y="-1700" width="120" height="60" as="geometry" />
        </mxCell>
        <mxCell id="vq3K7hZSyllb6Ue5ED_a-12" value="" style="edgeStyle=none;curved=1;rounded=0;orthogonalLoop=1;jettySize=auto;html=1;fontSize=12;startSize=8;endSize=8;" edge="1" parent="WIyWlLk6GJQsqaUBKTNV-1" source="vq3K7hZSyllb6Ue5ED_a-10" target="vq3K7hZSyllb6Ue5ED_a-11">
          <mxGeometry relative="1" as="geometry" />
        </mxCell>
        <mxCell id="vq3K7hZSyllb6Ue5ED_a-10" value="a = 2.5, b = 2.5&lt;br&gt;c = add(a , b)" style="shape=parallelogram;perimeter=parallelogramPerimeter;whiteSpace=wrap;html=1;fixedSize=1;fontSize=16;" vertex="1" parent="WIyWlLk6GJQsqaUBKTNV-1">
          <mxGeometry x="290" y="-1600" width="160" height="60" as="geometry" />
        </mxCell>
        <mxCell id="vq3K7hZSyllb6Ue5ED_a-14" value="" style="edgeStyle=none;curved=1;rounded=0;orthogonalLoop=1;jettySize=auto;html=1;fontSize=12;startSize=8;endSize=8;" edge="1" parent="WIyWlLk6GJQsqaUBKTNV-1" source="vq3K7hZSyllb6Ue5ED_a-11" target="vq3K7hZSyllb6Ue5ED_a-13">
          <mxGeometry relative="1" as="geometry" />
        </mxCell>
        <mxCell id="vq3K7hZSyllb6Ue5ED_a-11" value="printf(&quot;%lf\n&quot;, c);" style="shape=parallelogram;perimeter=parallelogramPerimeter;whiteSpace=wrap;html=1;fixedSize=1;fontSize=16;" vertex="1" parent="WIyWlLk6GJQsqaUBKTNV-1">
          <mxGeometry x="300" y="-1510" width="150" height="60" as="geometry" />
        </mxCell>
        <mxCell id="vq3K7hZSyllb6Ue5ED_a-13" value="end" style="ellipse;whiteSpace=wrap;html=1;fontSize=16;" vertex="1" parent="WIyWlLk6GJQsqaUBKTNV-1">
          <mxGeometry x="310" y="-1420" width="120" height="50" as="geometry" />
        </mxCell>
      </root>
    </mxGraphModel>
  </diagram>
</mxfile>
